<mxfile host="app.diagrams.net" modified="2023-04-02T04:33:29.911Z" agent="Mozilla/5.0 (Windows NT 10.0; Win64; x64) AppleWebKit/537.36 (KHTML, like Gecko) Chrome/111.0.0.0 Safari/537.36" etag="e-Un3DbD3JC6wqCCy5uL" version="21.1.2" type="github">
  <diagram name="第 1 页" id="4N0vP-BrQl26dEoN5jJD">
    <mxGraphModel dx="2930" dy="2836" grid="1" gridSize="10" guides="1" tooltips="1" connect="1" arrows="1" fold="1" page="1" pageScale="1" pageWidth="827" pageHeight="1169" math="1" shadow="0">
      <root>
        <mxCell id="0" />
        <mxCell id="1" parent="0" />
        <mxCell id="V7K2T1c5LGI8ZrcASS62-1" value="" style="ellipse;whiteSpace=wrap;html=1;aspect=fixed;" vertex="1" parent="1">
          <mxGeometry x="170" y="140" width="120" height="120" as="geometry" />
        </mxCell>
        <mxCell id="V7K2T1c5LGI8ZrcASS62-2" value="" style="ellipse;whiteSpace=wrap;html=1;aspect=fixed;" vertex="1" parent="1">
          <mxGeometry x="170" y="340" width="120" height="120" as="geometry" />
        </mxCell>
        <mxCell id="V7K2T1c5LGI8ZrcASS62-3" value="" style="ellipse;whiteSpace=wrap;html=1;aspect=fixed;" vertex="1" parent="1">
          <mxGeometry x="354" y="-178" width="120" height="120" as="geometry" />
        </mxCell>
        <mxCell id="V7K2T1c5LGI8ZrcASS62-4" value="" style="ellipse;whiteSpace=wrap;html=1;aspect=fixed;" vertex="1" parent="1">
          <mxGeometry x="354" y="22" width="120" height="120" as="geometry" />
        </mxCell>
        <mxCell id="V7K2T1c5LGI8ZrcASS62-5" value="" style="ellipse;whiteSpace=wrap;html=1;aspect=fixed;" vertex="1" parent="1">
          <mxGeometry x="353" y="480" width="120" height="120" as="geometry" />
        </mxCell>
        <mxCell id="V7K2T1c5LGI8ZrcASS62-6" value="" style="ellipse;whiteSpace=wrap;html=1;aspect=fixed;" vertex="1" parent="1">
          <mxGeometry x="353" y="680" width="120" height="120" as="geometry" />
        </mxCell>
        <mxCell id="V7K2T1c5LGI8ZrcASS62-8" value="&lt;span style=&quot;font-size: 70px;&quot;&gt;$$\vdots$$&lt;/span&gt;" style="text;html=1;strokeColor=none;fillColor=none;align=center;verticalAlign=middle;whiteSpace=wrap;rounded=0;" vertex="1" parent="1">
          <mxGeometry x="383" y="230" width="62" height="130" as="geometry" />
        </mxCell>
        <mxCell id="V7K2T1c5LGI8ZrcASS62-14" value="" style="ellipse;whiteSpace=wrap;html=1;aspect=fixed;" vertex="1" parent="1">
          <mxGeometry x="611" y="-178" width="120" height="120" as="geometry" />
        </mxCell>
        <mxCell id="V7K2T1c5LGI8ZrcASS62-15" value="" style="ellipse;whiteSpace=wrap;html=1;aspect=fixed;" vertex="1" parent="1">
          <mxGeometry x="611" y="22" width="120" height="120" as="geometry" />
        </mxCell>
        <mxCell id="V7K2T1c5LGI8ZrcASS62-16" value="" style="ellipse;whiteSpace=wrap;html=1;aspect=fixed;" vertex="1" parent="1">
          <mxGeometry x="610" y="480" width="120" height="120" as="geometry" />
        </mxCell>
        <mxCell id="V7K2T1c5LGI8ZrcASS62-17" value="" style="ellipse;whiteSpace=wrap;html=1;aspect=fixed;" vertex="1" parent="1">
          <mxGeometry x="610" y="680" width="120" height="120" as="geometry" />
        </mxCell>
        <mxCell id="V7K2T1c5LGI8ZrcASS62-18" value="&lt;span style=&quot;font-size: 70px;&quot;&gt;$$\vdots$$&lt;/span&gt;" style="text;html=1;strokeColor=none;fillColor=none;align=center;verticalAlign=middle;whiteSpace=wrap;rounded=0;" vertex="1" parent="1">
          <mxGeometry x="640" y="230" width="62" height="130" as="geometry" />
        </mxCell>
        <mxCell id="V7K2T1c5LGI8ZrcASS62-20" value="" style="shape=curlyBracket;whiteSpace=wrap;html=1;rounded=1;labelPosition=left;verticalLabelPosition=middle;align=right;verticalAlign=middle;rotation=-90;size=0.5;strokeWidth=2;" vertex="1" parent="1">
          <mxGeometry x="520" y="750" width="40" height="260" as="geometry" />
        </mxCell>
        <mxCell id="V7K2T1c5LGI8ZrcASS62-22" value="" style="ellipse;whiteSpace=wrap;html=1;aspect=fixed;" vertex="1" parent="1">
          <mxGeometry x="810" y="230" width="120" height="120" as="geometry" />
        </mxCell>
      </root>
    </mxGraphModel>
  </diagram>
</mxfile>
